<?xml version="1.0" standalone="no"?>
<!DOCTYPE svg PUBLIC "-//W3C//DTD SVG 20010904//EN"
 "http://www.w3.org/TR/2001/REC-SVG-20010904/DTD/svg10.dtd">
<svg version="1.0" xmlns="http://www.w3.org/2000/svg"
 width="534.000000pt" height="512.000000pt" viewBox="0 0 534.000000 512.000000"
 preserveAspectRatio="xMidYMid meet">
<metadata>
Created by potrace 1.16, written by Peter Selinger 2001-2019
</metadata>
<g transform="translate(0.000000,512.000000) scale(0.100000,-0.100000)"
fill="#000000" stroke="none">
<path d="M2130 4689 c-36 -4 -95 -17 -133 -29 -37 -11 -96 -22 -131 -24 -92
-4 -163 -42 -256 -136 -173 -175 -279 -386 -359 -712 -127 -518 -164 -1219
-97 -1853 14 -132 28 -306 32 -387 5 -101 11 -148 18 -148 8 0 29 106 59 293
78 478 109 754 124 1098 6 132 9 160 14 114 9 -94 -8 -495 -27 -648 -12 -99
-14 -141 -6 -149 7 -7 16 9 32 58 45 147 65 323 80 714 23 605 30 763 40 862
21 204 58 359 105 433 25 39 26 39 20 10 -41 -226 -56 -523 -35 -693 6 -53 32
-207 57 -342 38 -203 46 -265 45 -360 -1 -229 -68 -480 -156 -578 -20 -23 -21
-36 -28 -485 -5 -352 -10 -491 -23 -582 -10 -66 -17 -128 -17 -137 0 -9 18
-56 39 -105 31 -73 37 -97 34 -138 -13 -147 5 -211 65 -240 28 -13 40 -14 74
-4 22 7 40 13 40 15 0 2 -15 65 -34 141 -51 209 -96 578 -96 793 0 232 75 497
206 724 61 107 183 268 196 260 16 -10 3 -216 -21 -354 l-21 -114 85 -281 c63
-206 93 -326 115 -453 17 -96 30 -178 30 -182 0 -5 20 -33 45 -63 46 -57 64
-108 65 -182 0 -50 27 -157 41 -166 14 -8 111 -20 117 -14 11 10 -21 161 -58
280 -30 95 -43 159 -50 235 -10 121 -9 117 -67 218 -81 142 -142 374 -143 538
0 130 16 215 96 492 79 277 104 397 111 530 3 56 10 105 16 109 5 3 84 -71
176 -164 103 -106 181 -177 205 -188 34 -15 61 -16 256 -10 l218 7 12 -68 c14
-84 33 -772 34 -1254 1 -386 2 -392 61 -482 25 -37 25 -39 13 -132 -20 -157
10 -210 118 -210 29 0 56 3 60 7 4 4 -29 184 -74 400 -45 215 -84 428 -88 472
-8 106 8 289 50 586 20 134 38 291 42 349 10 139 17 110 44 -170 17 -182 74
-552 95 -620 3 -8 9 -111 15 -228 10 -207 11 -214 40 -272 40 -79 60 -160 60
-241 0 -65 1 -67 38 -92 51 -35 85 -47 138 -47 41 0 44 2 44 26 0 14 -25 80
-56 146 -62 135 -93 230 -129 393 -61 285 -83 535 -96 1091 l-10 462 30 47
c17 27 38 70 46 96 9 27 19 49 21 49 18 0 188 -409 244 -585 70 -220 88 -323
94 -540 8 -250 25 -335 105 -534 72 -179 88 -256 73 -365 -11 -82 -5 -121 29
-188 27 -53 64 -78 115 -78 37 0 47 5 74 37 51 63 55 88 41 325 -13 236 -14
672 -2 703 7 17 9 15 19 -15 6 -19 14 -54 18 -77 4 -28 12 -43 21 -43 19 0 13
79 -24 304 l-26 159 51 47 c39 36 50 52 45 69 -5 18 -13 21 -58 21 -51 0 -52
1 -70 39 -15 35 -16 48 -6 106 7 37 9 81 6 97 l-7 29 -33 -21 c-25 -16 -35
-17 -42 -8 -6 7 -25 87 -43 178 -100 509 -275 1084 -413 1355 -156 304 -376
539 -568 604 -114 38 -170 26 -314 -69 -167 -110 -230 -107 -485 23 -220 113
-299 133 -450 116z"/>
</g>
</svg>
