<?xml version="1.0" encoding="UTF-8" standalone="no"?>
<svg
   xmlns:dc="http://purl.org/dc/elements/1.1/"
   xmlns:cc="http://creativecommons.org/ns#"
   xmlns:rdf="http://www.w3.org/1999/02/22-rdf-syntax-ns#"
   xmlns:svg="http://www.w3.org/2000/svg"
   xmlns="http://www.w3.org/2000/svg"
   xmlns:sodipodi="http://sodipodi.sourceforge.net/DTD/sodipodi-0.dtd"
   xmlns:inkscape="http://www.inkscape.org/namespaces/inkscape"
   width="360px"
   height="179px"
   enable-background="new -16.128 -7.011 360 179"
   overflow="visible"
   version="1.1"
   viewBox="-16.128 -7.011 360 179"
   xml:space="preserve"
   id="svg869"
   sodipodi:docname="animals-359611.svg"
   inkscape:version="0.92.4 (5da689c313, 2019-01-14)"><metadata
   id="metadata875"><rdf:RDF><cc:Work
       rdf:about=""><dc:format>image/svg+xml</dc:format><dc:type
         rdf:resource="http://purl.org/dc/dcmitype/StillImage" /><dc:title></dc:title></cc:Work></rdf:RDF></metadata><defs
   id="defs873" /><sodipodi:namedview
   pagecolor="#ffffff"
   bordercolor="#666666"
   borderopacity="1"
   objecttolerance="10"
   gridtolerance="10"
   guidetolerance="10"
   inkscape:pageopacity="0"
   inkscape:pageshadow="2"
   inkscape:window-width="782"
   inkscape:window-height="480"
   id="namedview871"
   showgrid="false"
   inkscape:zoom="0.70724666"
   inkscape:cx="212.99098"
   inkscape:cy="89.5"
   inkscape:window-x="0"
   inkscape:window-y="25"
   inkscape:window-maximized="0"
   inkscape:current-layer="svg869" />
		<path
   d="m 294.7289,94.855418 -0.533,-1.081 c -2.299,0.06 -4.598,0.118 -6.896,0.178 -0.894,-0.903 -1.786,-1.806 -2.679,-2.709 0.543,-2.377 2.082,-4.353 1.006,-6.675 -1.89,0.441 -5.345,2.334 -5.996,0.338 -5.539,-16.953 -18.647,-42.111 -30.501,-53.737 -19.9,-19.513 -39.64,-20.802 -42.56,-21.2800003 -2.155,-0.12 -7.184,0.2390003 -12.93,2.1550003 -5.76,1.978 -7.662,3.429 -15.803,3.831 -10.887,0.538 -23.85,-5.409 -34.3,-7.0630003 -15.587,-2.468 -29.282,1.4830003 -30.554,1.3470003 -12.542,-1.3510003 -23.711999,6.068 -30.324999,11.044 -15.91,11.965 -25.1,40.951 -22.64,70.575 0.946,11.372002 4.253,17.403002 4.31,30.708002 l 0.539,0.539 h 0.539 c 5.451,-16.888 12.218,-35.470002 11.852,-57.107002 h 0.539 c 2.79,6.761 0.359,25.835 -2.155,31.247 v 0.539 c 0.359,0.18 0.718,0.359 1.078,0.539 0.18,-0.359 0.359,-0.719 0.539,-1.078 11.523,-15.425 1.049,-63.797 17.779,-72.73 h 0.539 c -1.683,5.662 -5.213,14.373 -3.233,23.705 1.437,6.77 5.064,16.172 6.949995,21.29 1.885004,5.118 -0.355,20.205 -11.259995,26.12 -2.408,13.284002 1.29,29.320002 -3.771,40.944002 1.999,2.954 3.795,4.971 5.926,7.542 -1.001,2.084 -1.633,3.51 -1.078,5.927 1.546,3.46 6.056,4.804 10.774995,3.231 h 1.078004 c 0,0 -3.199999,-5.077 -5.354999,-11.861 -1.897,-5.974 -2.742,-13.512 -3.265,-16.692 -1.313,-7.992 1.61,-15.349 6.233995,-21.591 6.063004,-8.186002 15.050004,-14.456002 21.242004,-17.736002 1.867,6.827 -1.356,12.197 -2.694,17.239002 3.771,6.464 7.542,12.93 11.313,19.395 1.437,4.31 2.874,8.621 4.31,12.931 1.975,1.256 3.951,2.515 5.926,3.771 2.493,4.594 -0.435,4.601 3.771,10.235 2.514,0.18 5.028,0.359 7.542,0.539 -0.314,-7.231 -7.342,-11.808 -7.451,-18.116 -0.142,-8.226 -4.872,-2.307 -13.021,-20.135 -4.625,-10.117 3.8,-19.675002 8.833,-29.657002 2.529,-5.019 4.58,-10.284 4.636,-16.136 0.359,-0.179 0.718,-0.359 1.077,-0.539 7.262,3.076 18.806,11.038 25.86,12.81 6.39,1.605 21.965,-0.648 31.786,0.12 3.641,6.441 0.879,22.125 2.72,30.441002 3.368,15.226 -4.825,28.554 6.438,33.669 -0.535,3.135 -2.117,5.278 -1.076,8.082 1.826,3.126 6.179,3.021 11.312,2.693 0.18,-0.18 0.359,-0.36 0.538,-0.538 -3.591,-8.8 -7.183,-17.601 -10.774,-26.399 -1.109,-5.347 -0.607,-10.398 0.476,-15.309 1.759,-7.981 5.053,-15.589002 5.45,-23.480002 0.36,-0.18 0.72,-3.592 1.078,-3.771 0.719,5.746 3.054,14.727 3.771,20.472002 2.335,4.849 3.054,9.698 5.389,14.546 0.359,5.028 0.718,8.441 1.077,13.469 2.13,4.678 6.316,3.453 6.465,13.469 3.907,1.767 7.303,2.873 13.469,2.693 0.18,-0.358 0.359,-0.718 0.538,-1.076 -2.328,-4.056 -5.842,-6.298 -8.081,-9.698 -5.328,-8.092 -8.36,-18.664 -10.021,-30.393 -1.479,-10.452002 -0.573,-22.165002 -1.83,-33.180002 4.849,-2.082 5.656,-5.998 7.004,-7.003 2.713,2.233 17.24,17.659 22.627,32.385 1.976,3.231002 -1.795,12.570002 4.189,21.588002 1.929,2.905 3.917,5.026 5.461,7.009 2.936,3.768 4.473,6.901 2.295,13.076 0.979,2.738 3.866,5.834 7.4,6.29 4.063,0.98 7.523,0.046 10.908,-4.573 -1.284,-10.57 -2.678,-22.494 -1.11,-33.301 0.252,-0.035 0.503,-0.069 0.755,-0.104 2.194,2.277 2.247,3.431 3.094,5.728 0.251,-0.034 0.502,-0.068 0.755,-0.103 0.421,-4.528 -2.809,-11.674 -4.115,-15.970002 2.161,-1.066 4.322,-2.132 6.482,-3.197 0.08,-0.16 0.19,-0.303 0.3,-0.446 z"
   id="path865"
   inkscape:connector-curvature="0"
   style="clip-rule:evenodd;fill:#280000;fill-rule:evenodd" />
		
<path
   style="opacity:0.68999999;fill:#501400;fill-opacity:1;fill-rule:evenodd;stroke:none;stroke-width:5.10891056;stroke-miterlimit:4;stroke-dasharray:none;stroke-dashoffset:0;stroke-opacity:1;paint-order:stroke fill markers"
   d="m 106.85938,158.04933 c -1.13869,-1.25825 -1.4745,-2.77543 -1.06618,-4.81704 0.46392,-2.3196 -0.002,-3.69159 -2.10385,-6.18893 -2.51767,-2.99209 -2.62614,-3.50163 -1.60699,-7.54903 0.6011,-2.3872 1.39877,-11.43379 1.77259,-20.10352 l 0.67968,-15.76317 4.18189,-4.181888 c 4.60972,-4.609721 7.4936,-11.512977 7.4936,-17.937707 0,-2.220052 -1.61124,-8.702779 -3.58053,-14.406059 -4.60141,-13.326185 -5.08968,-18.64344 -2.58884,-28.191978 1.08017,-4.124184 1.78069,-7.690673 1.55672,-7.92553 -0.22397,-0.234857 -1.76351,0.872395 -3.4212,2.460562 -4.8083,4.606644 -6.79382,12.970365 -8.519581,35.887462 -1.471941,19.546533 -2.930536,28.285128 -5.368548,32.163558 -1.039937,1.65434 -1.115212,1.51175 -0.579768,-1.09822 0.338436,-1.64967 0.87356,-8.093039 1.189164,-14.318594 0.778251,-15.351638 -0.963613,-16.801725 -2.555205,-2.127185 -1.182075,10.898761 -5.121508,28.039459 -8.949857,38.941329 l -1.931022,5.49892 -0.663586,-3.99921 c -0.364972,-2.19957 -1.432264,-8.04841 -2.371759,-12.99743 -2.687454,-14.156823 -2.188907,-36.23532 1.1,-48.714194 C 83.184044,48.802418 88.957359,38.240193 96.827614,31.028533 109.39468,19.513101 120.41424,16.44012 149.20359,16.422649 c 12.05556,-0.0073 14.51192,0.301422 22.99546,2.890284 13.05129,3.982772 24.52437,4.581679 33.13627,1.729746 11.00007,-3.642807 15.79516,-4.17427 23.36749,-2.589933 15.85617,3.317545 32.81916,14.606719 43.50754,28.955071 6.16837,8.280577 16.94199,28.334673 21.08229,39.242747 2.15202,5.669713 2.63863,6.248764 5.25132,6.248764 2.64708,0 2.8325,0.235079 2.29708,2.912204 -0.75405,3.77028 1.38812,5.594568 6.1932,5.274148 3.8007,-0.25344 3.52415,0.37252 -1.50582,3.40828 -1.74216,1.05144 -1.74572,1.32326 -0.0866,6.58659 2.1193,6.72317 2.14349,7.4014 0.20667,5.79397 -0.83813,-0.69558 -1.76556,-1.02298 -2.06098,-0.72757 -1.2892,1.2892 -1.54075,12.10304 -0.51665,22.21116 1.0579,10.44178 1.01499,11.0616 -0.89813,12.97472 -2.88692,2.88692 -9.13806,2.71051 -12.39562,-0.34982 -2.08195,-1.95589 -2.47591,-3.17559 -2.30592,-7.1391 0.17129,-3.9938 -0.32281,-5.49352 -3.00343,-9.11611 -7.45831,-10.07911 -8.44945,-12.39528 -9.02136,-21.08169 -0.39489,-5.99738 -1.22566,-9.61388 -3.04337,-13.24827 -3.55639,-7.110804 -9.26535,-15.289085 -15.22366,-21.808409 l -5.13774,-5.621517 -3.76962,3.962693 -3.76962,3.962692 0.74988,16.750888 c 1.21026,27.034683 4.75268,39.325003 14.69793,50.994113 l 4.47353,5.24896 h -4.05558 c -6.39805,0 -8.84157,-1.35653 -9.58538,-5.32137 -0.35764,-1.9064 -1.9885,-5.15013 -3.62412,-7.2083 -2.45109,-3.0843 -2.97386,-4.67059 -2.97386,-9.02389 0,-3.26725 -1.11303,-8.45817 -2.91819,-13.6098 -1.605,-4.58042 -3.69437,-12.37723 -4.64304,-17.32625 -2.18161,-11.381036 -3.06617,-13.195074 -3.88592,-7.969156 -0.3425,2.183469 -1.95621,9.198736 -3.58601,15.589476 -4.29342,16.83524 -4.04239,20.57131 2.44379,36.37097 l 5.33578,12.99743 -3.94561,0.31105 c -5.41481,0.42687 -7.14788,-1.21626 -6.37575,-6.04488 0.53337,-3.33547 0.25488,-4.13908 -2.15402,-6.21575 -2.72645,-2.35042 -2.76865,-2.56385 -2.90896,-14.71386 -0.22639,-19.60478 -1.43245,-41.042603 -2.50602,-44.54458 l -0.98758,-3.221471 -16.3446,0.222065 -16.34461,0.222065 -12.04751,-6.248764 c -6.62613,-3.43682 -12.67912,-6.248764 -13.4511,-6.248764 -0.92887,0 -1.5811,1.574818 -1.92841,4.656209 -0.33918,3.009153 -2.86082,9.22679 -7.12865,17.577192 -5.40995,10.585068 -6.60382,13.783228 -6.60382,17.690428 0,5.86097 3.41146,12.7428 9.45066,19.0645 3.03236,3.17422 4.47004,5.64446 4.8821,8.38851 0.32122,2.13918 1.70917,5.58959 3.08431,7.66757 1.37515,2.07798 2.79993,4.9721 3.16618,6.43136 0.63112,2.5146 0.49117,2.63634 -2.67891,2.33046 -3.50984,-0.33867 -5.25176,-2.53812 -6.3778,-8.05302 -0.33997,-1.66501 -1.68857,-3.31608 -3.45446,-4.22926 -2.26215,-1.16981 -3.38604,-2.96818 -5.12996,-8.20866 -1.22824,-3.69086 -4.68989,-10.90691 -7.69256,-16.03563 l -5.4594,-9.32496 1.73325,-6.40314 c 0.97907,-3.61699 1.4468,-7.544401 1.07495,-9.026005 l -0.6583,-2.622872 -4.17109,2.296236 c -7.09043,3.903375 -17.38877,14.357121 -20.7293,21.042111 -2.42621,4.85528 -3.03255,7.34453 -3.03255,12.44983 0,8.07528 2.43123,19.95214 5.50875,26.91096 l 2.37964,5.38078 h -3.78924 c -2.4075,0 -4.39536,-0.66977 -5.45147,-1.83675 z"
   id="path877"
   inkscape:connector-curvature="0"
   transform="translate(-16.128,-7.011)" /></svg>